<svg width="410" height="284" viewBox="0 0 410 284" fill="none" xmlns="http://www.w3.org/2000/svg">
<path d="M103 139C120.673 139 135 124.673 135 107V36C135 18.3269 149.327 4 167 4H243C260.673 4 275 18.3269 275 36V107C275 124.673 289.327 139 307 139H378C395.673 139 410 153.327 410 171V252C410 269.673 395.673 284 378 284H32C14.3269 284 0 269.673 0 252V171C0 153.327 14.3269 139 32 139H103Z" fill="#565656"/>
<path d="M103 135C120.673 135 135 120.673 135 103V32C135 14.3269 149.327 0 167 0H243C260.673 0 275 14.3269 275 32V103C275 120.673 289.327 135 307 135H378C395.673 135 410 149.327 410 167V248C410 265.673 395.673 280 378 280H32C14.3269 280 0 265.673 0 248V167C0 149.327 14.3269 135 32 135H103Z" fill="white"/>
</svg>
