<svg width="415" height="407" viewBox="0 0 415 407" fill="none" xmlns="http://www.w3.org/2000/svg">
<path d="M105.381 22.1072C104.57 22.172 101.943 22.4635 99.5424 22.755C51.3722 28.3256 11.8304 64.6968 2.19638 112.274C-2.11785 133.65 0.0230482 161.082 7.74326 184.271C15.9176 208.659 29.6388 229.97 53.0589 254.617C64.1527 266.276 73.6245 275.021 104.57 302.227C112.063 308.801 120.4 316.153 123.06 318.582C156.276 348.379 179.339 373.382 199.159 401.073L203.376 407H207.658L211.939 406.968L216.156 400.749C234.224 374.127 255.471 350.225 287.033 321.044C293.229 315.279 300.268 308.963 320.347 291.15C351.357 263.556 367.219 247.654 380.065 231.233C400.922 204.513 411.465 179.316 414.579 148.548C415.195 142.2 415.13 127.01 414.417 121.504C411.011 95.4325 400.111 73.0203 382.044 54.9805C363.976 36.9407 341.496 26.0261 315.416 22.6578C309.156 21.8805 295.532 21.8805 289.142 22.6578C265.365 25.6699 244.41 35.1918 226.861 50.9645C220.665 56.5351 213.691 64.4701 209.507 70.7208C208.534 72.1783 207.658 73.3766 207.56 73.3766C207.463 73.3766 206.587 72.1783 205.614 70.7208C201.43 64.4701 194.456 56.5351 188.26 50.9645C171.035 35.4833 150.308 25.929 127.342 22.8845C122.606 22.2368 109.112 21.7833 105.381 22.1072Z" fill="#9C1F1F"/>
<path d="M105.381 0.107217C104.57 0.171992 101.943 0.463499 99.5424 0.754987C51.3722 6.32563 11.8304 42.6968 2.19638 90.274C-2.11785 111.65 0.0230482 139.082 7.74326 162.271C15.9176 186.659 29.6388 207.97 53.0589 232.617C64.1527 244.276 73.6245 253.021 104.57 280.227C112.063 286.801 120.4 294.153 123.06 296.582C156.276 326.379 179.339 351.382 199.159 379.073L203.376 385H207.658L211.939 384.968L216.156 378.749C234.224 352.127 255.471 328.225 287.033 299.044C293.229 293.279 300.268 286.963 320.347 269.15C351.357 241.556 367.219 225.654 380.065 209.233C400.922 182.513 411.465 157.316 414.579 126.548C415.195 120.2 415.13 105.01 414.417 99.5044C411.011 73.4325 400.111 51.0203 382.044 32.9805C363.976 14.9407 341.496 4.02612 315.416 0.657818C309.156 -0.119481 295.532 -0.119481 289.142 0.657818C265.365 3.66985 244.41 13.1918 226.861 28.9645C220.665 34.5351 213.691 42.4701 209.507 48.7208C208.534 50.1783 207.658 51.3766 207.56 51.3766C207.463 51.3766 206.587 50.1783 205.614 48.7208C201.43 42.4701 194.456 34.5351 188.26 28.9645C171.035 13.4833 150.308 3.92896 127.342 0.884535C122.606 0.236785 109.112 -0.216657 105.381 0.107217Z" fill="#FF4D4D"/>
</svg>
