<svg width="415" height="385" viewBox="0 0 415 385" fill="none" xmlns="http://www.w3.org/2000/svg">
<path d="M105.381 0.107208C104.57 0.171983 101.943 0.463487 99.5424 0.754974C51.3722 6.32562 11.8304 42.6968 2.19638 90.274C-2.11785 111.65 0.0230479 139.082 7.74326 162.271C15.9176 186.659 29.6388 207.97 53.0589 232.617C64.1527 244.276 73.6245 253.021 104.57 280.227C112.063 286.801 120.4 294.153 123.06 296.582C156.276 326.379 179.339 351.382 199.159 379.073L203.376 385H207.658L211.939 384.968L216.156 378.749C234.224 352.127 255.471 328.225 287.033 299.044C293.229 293.279 300.268 286.963 320.347 269.15C351.357 241.556 367.219 225.654 380.065 209.233C400.922 182.514 411.465 157.316 414.579 126.548C415.195 120.2 415.13 105.01 414.417 99.5044C411.011 73.4325 400.111 51.0204 382.044 32.9805C363.976 14.9407 341.496 4.0261 315.416 0.657806C309.156 -0.119493 295.532 -0.119493 289.142 0.657806C265.365 3.66984 244.41 13.1918 226.861 28.9645C220.665 34.5351 213.691 42.47 209.507 48.7208C208.534 50.1783 207.658 51.3766 207.56 51.3766C207.463 51.3766 206.587 50.1783 205.614 48.7208C201.43 42.47 194.456 34.5351 188.26 28.9645C171.035 13.4833 150.308 3.92894 127.342 0.884521C122.606 0.236772 109.112 -0.216667 105.381 0.107208Z" fill="#5C5C5C"/>
</svg>
