<svg width="45" height="37" viewBox="0 0 45 37" fill="none" xmlns="http://www.w3.org/2000/svg">
<path fill-rule="evenodd" clip-rule="evenodd" d="M27.1717 5.73383C23.2143 7.37987 15.305 10.7867 3.44383 15.9545C1.51777 16.7204 0.508805 17.4697 0.416955 18.2024C0.261726 19.4406 1.81233 19.9282 3.92386 20.5921C4.21109 20.6824 4.50869 20.776 4.81379 20.8752C6.89121 21.5505 9.68571 22.3405 11.1385 22.3719C12.4562 22.4003 13.927 21.8571 15.5508 20.742C26.6331 13.2612 32.3538 9.48005 32.713 9.39853C32.9663 9.34102 33.3175 9.26872 33.5554 9.48017C33.7933 9.69163 33.7699 10.0921 33.7447 10.1995C33.5911 10.8544 27.5044 16.5131 24.3545 19.4415C23.3725 20.3545 22.676 21.002 22.5336 21.1499C22.2146 21.4812 21.8895 21.7946 21.5771 22.0958C19.6471 23.9563 18.1998 25.3515 21.6572 27.6299C23.3187 28.7248 24.6482 29.6302 25.9746 30.5335C27.4232 31.5199 28.8679 32.5038 30.7373 33.7292C31.2135 34.0414 31.6684 34.3656 32.1114 34.6815C33.7972 35.8833 35.3117 36.963 37.1827 36.7908C38.2699 36.6907 39.393 35.6684 39.9633 32.6194C41.3112 25.4136 43.9607 9.80096 44.573 3.36734C44.6266 2.80368 44.5592 2.08229 44.505 1.76562C44.4508 1.44895 44.3375 0.997763 43.9259 0.663761C43.4384 0.268203 42.6858 0.184788 42.3493 0.190717C40.8189 0.217675 38.471 1.03407 27.1717 5.73383Z" fill="white"/>
</svg>
